<svg width="66" height="73" viewBox="0 0 66 73" fill="none" xmlns="http://www.w3.org/2000/svg">
<path d="M37.967 3.10913C37.7185 0.87272 31.2449 0.871161 29.6074 1.40588C23.5396 3.38718 17.3719 6.96873 12.9468 11.5863C4.28165 20.6281 0.00538833 33.5603 0.632454 46.1016C0.828125 50.0151 3.27721 54.5661 5.46813 57.7308C9.26597 63.2165 14.4953 66.206 20.5821 68.6551C27.3358 71.3726 34.4251 71.4743 41.5693 71.4743C42.5696 71.4743 45.6811 71.9728 46.3658 70.9457C46.6398 70.5348 46.6529 70.3823 47.1294 70.0647" stroke="black" stroke-linecap="round"/>
<path d="M21.4043 5.22352C20.0441 5.22352 23.7247 3.46153 25.0849 3.46153C31.3413 3.46153 37.601 4.16633 43.8795 4.16633C47.9784 4.16633 50.1965 5.5562 53.5508 7.84693C57.1493 10.3044 60.5755 13.5458 61.9301 17.7924C62.725 20.2847 63.602 22.8544 64.2402 25.3885C64.9306 28.1298 64.6712 30.9731 64.8276 33.7677C65.0681 38.0672 65.7918 43.0124 64.6709 47.2371C62.7728 54.3916 57.5324 61.9571 51.084 65.4835C45.4222 68.5799 39.1943 69.8378 32.8377 70.4954C29.3521 70.856 25.1951 71.8428 21.6784 71.0436C20.6256 70.8043 20.2008 70.1331 19.564 69.3599C19.0151 68.6933 18.2931 68.7197 17.6063 68.3027C15.9841 67.3178 14.7087 66.1563 12.9468 65.2877C10.2 63.9337 4.37297 61.9667 3.78445 58.4356" stroke="black" stroke-linecap="round"/>
<path d="M60.8729 17.205C60.8729 14.7969 58.6725 12.3851 56.6441 11.3709C54.5287 10.3132 52.4302 9.17636 50.2226 8.31679C47.4327 7.23043 44.5183 6.88848 41.7064 5.92832C37.9675 4.65162 33.9178 4.3562 30.0381 3.63773C27.7614 3.21612 23.9443 2.96629 21.7763 3.83351C15.0266 6.5334 11.0462 12.8405 8.63971 19.3194C7.38894 22.6869 6.29969 26.1705 4.91996 29.4606C3.68329 32.4096 2.37487 35.2392 2.37487 38.5055C2.37487 41.6064 1.86376 45.1919 2.55107 48.216C3.11192 50.6838 4.13776 52.7401 5.37025 54.9312C8.02406 59.6491 13.0549 63.2764 17.8608 65.6793C19.4118 66.4548 20.7757 67.7409 22.2853 68.6355C24.4002 69.8888 26.7912 69.8339 29.0788 70.4954C33.7249 71.8388 39.7285 72.0533 44.506 71.2002C46.6517 70.817 48.3029 69.4605 50.1052 68.3419C51.728 67.3346 53.4982 66.8741 54.608 65.2094C55.4807 63.9005 56.6771 62.7985 57.4859 61.4505C57.9659 60.6505 58.0433 59.3425 58.4061 58.4356" stroke="black" stroke-linecap="round"/>
</svg>
