<svg width="66" height="74" viewBox="0 0 66 74" fill="none" xmlns="http://www.w3.org/2000/svg">
<path d="M8.50423 2.6903C15.978 9.24889 22.4472 17.2848 29.0803 24.676C34.2537 30.4406 39.098 36.7986 43.6657 43.0594C46.7685 47.3125 50.0763 51.1093 53.5915 55.0213C55.0782 56.6759 56.5875 58.3551 57.8791 60.1703C58.5166 61.0662 58.0007 60.1003 57.8399 59.7787" stroke="black" stroke-linecap="round"/>
<path d="M65.2403 2.6903C62.8606 2.6903 61.1932 3.22195 59.3278 4.80469C54.5041 8.89752 50.7648 14.0695 46.8373 18.9789C41.1065 26.1424 35.3181 33.3403 29.8047 40.6709C26.3301 45.2909 22.5933 50.4752 17.8623 53.9446C15.0868 55.98 14.3455 58.8181 12.224 61.3253C11.6013 62.0612 8.31294 66.4441 7.79944 65.4171" stroke="black" stroke-linecap="round"/>
<path d="M59.9543 0.928314C59.5841 2.96419 57.4845 5.07461 56.2345 6.58625C52.3803 11.2472 49.3997 16.3765 45.9954 21.3478C42.3309 26.6991 37.6175 31.4779 32.8197 35.8157C28.3545 39.8527 24.57 44.5043 20.6424 49.0502C17.9989 52.1097 15.3541 55.5563 12.3023 58.2125C9.0009 61.0859 5.43553 63.7881 2.76797 67.3161C1.78774 68.6125 0.799341 70.4374 0.751476 72.1126C0.699025 73.9484 0.751476 71.6283 0.751476 71.0554" stroke="black" stroke-linecap="round"/>
<path d="M10.6186 0.928314C12.8872 1.40591 14.7581 6.74364 16.0612 8.48529C19.9589 13.6946 24.0616 18.8017 27.6903 24.2061C30.7647 28.785 33.8228 33.5175 37.4204 37.7147C40.5054 41.3138 44.6852 43.8745 47.8945 47.4448C49.8937 49.6689 52.7393 51.8395 54.1593 54.4928C55.4286 56.8642 56.8814 60.1948 58.8579 62.0301C59.5757 62.6966 59.8883 64.4761 60.4633 65.4171C61.119 66.49 61.612 66.4743 62.7735 66.4743" stroke="black" stroke-linecap="round"/>
</svg>
